HIERARCHY
ROOT Hips
{
	OFFSET 0.000000 88.474243 0.000000
	CHANNELS 6 Xposition Yposition Zposition Zrotation Yrotation Xrotation 
	JOINT Hips_Spine
	{
		OFFSET 0.000000 0.000000 0.000000
		CHANNELS 3 Zrotation Yrotation Xrotation
		JOINT Spine
		{
			OFFSET 0.005100 8.711998 -0.691000
			CHANNELS 3 Zrotation Yrotation Xrotation
			JOINT Spine1
			{
				OFFSET -0.009200 8.660301 -1.275000
				CHANNELS 3 Zrotation Yrotation Xrotation
				JOINT Spine2
				{
					OFFSET 0.006300 9.852501 -1.857000
					CHANNELS 3 Zrotation Yrotation Xrotation
					JOINT Spine2_Neck
					{
						OFFSET 0.000000 0.000000 0.000000
						CHANNELS 3 Zrotation Yrotation Xrotation
						JOINT Neck
						{
							OFFSET 0.016300 11.420799 -0.263300
							CHANNELS 3 Zrotation Yrotation Xrotation
							End Site #name: Head
							{
								OFFSET -0.019200 9.262405 2.362500
							}
						}
					}
					JOINT Spine2_LeftShoulder
					{
						OFFSET 0.000000 0.000000 0.000000
						CHANNELS 3 Zrotation Yrotation Xrotation
						JOINT LeftShoulder
						{
							OFFSET 5.616900 6.732201 -0.345700
							CHANNELS 3 Zrotation Yrotation Xrotation
							JOINT LeftArm
							{
								OFFSET 10.664888 -0.183372 -2.440700
								CHANNELS 3 Zrotation Yrotation Xrotation
								JOINT LeftForeArm
								{
									OFFSET 27.459126 0.000000 0.000000
									CHANNELS 3 Zrotation Yrotation Xrotation
									End Site #name: LeftHand
									{
										OFFSET 21.306858 0.000000 0.000000
									}
								}
							}
						}
					}
					JOINT Spine2_RightShoulder
					{
						OFFSET 0.000000 0.000000 0.000000
						CHANNELS 3 Zrotation Yrotation Xrotation
						JOINT RightShoulder
						{
							OFFSET -5.580300 6.737503 -0.344400
							CHANNELS 3 Zrotation Yrotation Xrotation
							JOINT RightArm
							{
								OFFSET -10.679335 -0.188484 -2.383900
								CHANNELS 3 Zrotation Yrotation Xrotation
								JOINT RightForeArm
								{
									OFFSET -27.503529 0.000000 0.000000
									CHANNELS 3 Zrotation Yrotation Xrotation
									End Site #name: RightHand
									{
										OFFSET -21.306808 0.000000 0.000000
									}
								}
							}
						}
					}
				}
			}
		}
	}
	JOINT Hips_LeftUpLeg
	{
		OFFSET 0.000000 0.000000 0.000000
		CHANNELS 3 Zrotation Yrotation Xrotation
		JOINT LeftUpLeg
		{
			OFFSET 6.857700 -6.739601 0.312100
			CHANNELS 3 Zrotation Yrotation Xrotation
			JOINT LeftLeg
			{
				OFFSET -0.367590 -34.731552 -4.572400
				CHANNELS 3 Zrotation Yrotation Xrotation
				End Site #name: LeftFoot
				{
					OFFSET 0.367590 -34.656704 -6.067400
				}
			}
		}
	}
	JOINT Hips_RightUpLeg
	{
		OFFSET 0.000000 0.000000 0.000000
		CHANNELS 3 Zrotation Yrotation Xrotation
		JOINT RightUpLeg
		{
			OFFSET -6.876100 -6.733299 0.301000
			CHANNELS 3 Zrotation Yrotation Xrotation
			JOINT RightLeg
			{
				OFFSET 0.347353 -34.795158 -4.515900
				CHANNELS 3 Zrotation Yrotation Xrotation
				End Site #name: RightFoot
				{
					OFFSET -0.347353 -34.589367 -6.070300
				}
			}
		}
	}
}
MOTION
Frames: 6
Frame Time: 0.041667
-0.282119 -0.119090 -1.137079 -1.498893 -2.434418 -0.953851 0.000000 -0.000000 0.000000 -1.011154 0.770327 5.258360 -1.213829 0.016125 2.807411 0.000000 0.000000 0.000000 -1.378226 -0.389585 1.722069 4.032566 -3.197340 9.516494 -1.307330 -0.395819 2.897896 -3.906414 6.465208 -0.661872 -71.056698 -4.854145 30.341416 0.119244 -7.611559 0.215191 -1.676358 -0.280673 2.470118 8.919930 -3.340631 0.376569 48.622345 36.620822 -6.840955 179.319265 41.366613 -179.777264 0.000000 -0.000000 -0.000000 1.567635 12.332171 -17.297456 2.934447 2.433632 18.506360 0.000000 -0.000000 0.000000 -0.825415 -10.184101 -12.385750 -0.058734 -1.622190 17.481725 
-0.326571 -0.125001 -1.166562 -1.442273 -2.445305 -0.957891 0.000000 -0.000000 0.000000 -0.992390 0.753514 5.214417 -1.178576 -0.000781 2.808227 0.000000 0.000000 0.000000 -1.332209 -0.409572 1.738173 3.962767 -3.156384 9.510999 -1.268069 -0.418788 2.908866 -3.959815 6.408240 -0.657173 -71.176080 -5.103101 30.076189 0.120436 -7.341367 0.213745 -1.632339 -0.309653 2.482468 9.234394 -3.377045 0.366188 49.181800 36.249324 -6.094604 179.330054 41.493175 -179.779155 0.000000 -0.000000 -0.000000 1.575636 12.343448 -17.260671 2.911583 2.382424 18.447332 0.000000 -0.000000 0.000000 -0.819852 -10.180114 -12.370612 -0.056918 -1.631813 17.460983 
-0.365109 -0.130965 -1.196281 -1.388325 -2.459340 -0.963688 0.000000 -0.000000 0.000000 -0.974786 0.738038 5.161196 -1.142098 -0.011731 2.805254 0.000000 0.000000 0.000000 -1.286641 -0.422920 1.753554 3.888670 -3.110627 9.510203 -1.228647 -0.435214 2.917024 -4.014878 6.343503 -0.652105 -71.305629 -5.342817 29.794261 0.120217 -7.062742 0.210956 -1.588592 -0.329343 2.492603 9.480656 -3.402495 0.349277 49.773385 35.871576 -5.312326 179.341097 41.730245 -179.779497 0.000000 -0.000000 -0.000000 1.582577 12.351600 -17.224392 2.890775 2.336288 18.386182 0.000000 -0.000000 0.000000 -0.815029 -10.174958 -12.353820 -0.055356 -1.639135 17.439076 
-0.397570 -0.136957 -1.226194 -1.338655 -2.474863 -0.969323 0.000000 -0.000000 0.000000 -0.957744 0.725145 5.097293 -1.105003 -0.015829 2.800908 0.000000 0.000000 0.000000 -1.239465 -0.428745 1.769783 3.807291 -3.060693 9.501430 -1.189027 -0.441542 2.924422 -4.073762 6.275065 -0.646560 -71.440280 -5.606361 29.505892 0.119946 -6.756754 0.209422 -1.544277 -0.342421 2.504301 9.732809 -3.421305 0.332790 50.385916 35.460575 -4.480271 179.354422 42.012938 -179.778112 0.000000 -0.000000 -0.000000 1.589171 12.360877 -17.188764 2.871921 2.298393 18.330621 0.000000 -0.000000 0.000000 -0.812783 -10.169078 -12.336320 -0.054951 -1.647573 17.413711 
-0.423803 -0.142972 -1.256306 -1.292909 -2.490888 -0.975223 0.000000 -0.000000 0.000000 -0.939132 0.712915 5.032589 -1.067003 -0.017499 2.796700 0.000000 0.000000 0.000000 -1.191712 -0.431582 1.788069 3.722213 -3.006930 9.489159 -1.148102 -0.442230 2.930881 -4.133435 6.197420 -0.638877 -71.553884 -5.864448 29.206508 0.119501 -6.470648 0.206407 -1.499354 -0.353230 2.516256 10.014157 -3.448338 0.313181 51.019604 34.989791 -3.578921 179.372101 42.364255 -179.775038 0.000000 -0.000000 -0.000000 1.596749 12.369002 -17.157854 2.858156 2.270988 18.282170 0.000000 -0.000000 0.000000 -0.810589 -10.161829 -12.319739 -0.053728 -1.655263 17.390654 
-0.444061 -0.148932 -1.286544 -1.250842 -2.508680 -0.981196 0.000000 -0.000000 0.000000 -0.920602 0.699922 4.968767 -1.028062 -0.018776 2.793063 0.000000 0.000000 0.000000 -1.143195 -0.432918 1.807811 3.630595 -2.949874 9.470071 -1.106382 -0.440484 2.938617 -4.199792 6.112830 -0.630538 -71.672103 -6.093838 28.914771 0.118323 -6.172537 0.204386 -1.454146 -0.363501 2.529063 10.312165 -3.483377 0.291355 51.707605 34.417144 -2.590340 179.390625 42.779443 -179.772751 0.000000 -0.000000 -0.000000 1.601623 12.377568 -17.125201 2.848337 2.254399 18.230695 0.000000 -0.000000 0.000000 -0.810252 -10.151770 -12.301428 -0.054216 -1.663752 17.364714 
